# xmcd
#
# Track frame offsets: 
#        150
#        20099
#        52712
#        67808
#        81993
#        113029
#        127951
#        144160
#        166041
#        183578
#        217480
#        231714
#        266712
#
# Disc length: 3797 seconds
#
# Revision: 0
# Processed by: cddbd v1.5.2PL0 Copyright (c) Steve Scherf et al.
# Submitted via: ExactAudioCopy v1.0b1
#
DISCID=b90ed30d
DTITLE=Barry White - Gold [CD2)
DYEAR=2012
DGENRE=Soul
TTITLE0=Baby We Better Try To Get It Together
TTITLE1=My Sweet Summer Suite
TTITLE2=Don’t Make Me Wait Too Long
TTITLE3=I’m Qualified To Satisfy You
TTITLE4=It’s Ecstasy When You Lay Down Next To Me
TTITLE5=Oh What A Night For Dancing
TTITLE6=Playing Your Game, Baby
TTITLE7=Just The Way You Are
TTITLE8=It’s Only Love Doing Its Thing
TTITLE9=Sha La La Means I Love You
TTITLE10=I’ve Got So Much To Give
TTITLE11=Sho’ You Right
TTITLE12=Practice What You Preach
EXTD=
EXTT0=
EXTT1=
EXTT2=
EXTT3=
EXTT4=
EXTT5=
EXTT6=
EXTT7=
EXTT8=
EXTT9=
EXTT10=
EXTT11=
EXTT12=
PLAYORDER=
